<?xml version="1.0" encoding="UTF-8"?>
<svg id="Calque_2" data-name="Calque 2" xmlns="http://www.w3.org/2000/svg" viewBox="0 0 659.32 637.04">
  <defs>
    <style>
      .cls-1 {
        fill: #ffcf06;
      }

      .cls-2 {
        fill: #d38620;
      }

      .cls-3 {
        fill: #c49e22;
      }

      .cls-4 {
        fill: #c63922;
      }

      .cls-5 {
        fill: #e25f05;
      }

      .cls-6 {
        fill: #16140f;
      }

      .cls-7 {
        fill: #4c3e3c;
      }
    </style>
  </defs>
  <g id="Balrog">
    <path class="cls-2" d="m365.39,175.33s57.33-89.74,40.03-76.76c-17.3,12.97-25.95,22.86-33.98,17.3-8.03-5.56,37.69-66.73,19.15-48.81-18.53,17.92-42.55,21.01-56.49,20.39s80.84-65.24,31.29-47.14c-49.55,18.1-6.3-60.98-32.25-35.03-25.95,25.95-38.31,8.03-43.25,17.3s-16.06,28.42-14.83,40.16,41.39,73.62,35.22,76.66-42.63-43.91-42.63-43.91c-3.71,1.85-2.09,19.56-1.84,21.03,0,0-3.72,56.2,7.4,58.67"/>
    <path class="cls-5" d="m373.43,180.74s57.33-89.74,40.03-76.76c-17.3,12.97-25.95,22.86-33.98,17.3-8.03-5.56,37.69-66.73,19.15-48.81s-42.55,21.01-56.49,20.39c-13.94-.62,80.84-65.24,31.29-47.14-49.55,18.1-6.3-60.98-32.25-35.03-25.95,25.95-38.31,8.03-43.25,17.3s-16.06,28.42-14.83,40.16,41.39,73.62,35.22,76.66-42.63-43.91-42.63-43.91c-3.71,1.85-2.09,19.56-1.84,21.03,0,0-3.72,56.2,7.4,58.67"/>
    <path class="cls-1" d="m353.66,187.53s57.33-89.74,40.03-76.76c-17.3,12.97-25.95,22.86-33.98,17.3s37.69-66.73,19.15-48.81-42.55,21.01-56.49,20.39,80.84-65.24,31.29-47.14c-49.55,18.1-6.3-60.98-32.25-35.03-25.95,25.95-38.31,8.03-43.25,17.3s-16.06,28.42-14.83,40.16,41.39,73.62,35.22,76.66c-6.18,3.04-42.63-43.91-42.63-43.91-3.71,1.85-2.09,19.56-1.84,21.03,0,0-3.72,56.2,7.4,58.67"/>
    <path d="m334.69,311.4c26.25-22.28,86.78-9.44,149.51-24.86,57.36-14.1,87,8,86.42-49.98,0-.58,51.77-71.41,51.87-71.59,0,0,.35-.65.35-.65,0,0,0,0,0,0-.28.62,58.53,63.33,27.36,219.21-23,115-164.3,116.49-205,116s-157.96-147.88-110.51-188.14Z"/>
    <path d="m324.63,311.6c-26.25-22.28-86.78-9.44-149.51-24.86-57.36-14.1-87,8-86.42-49.98,0-.58-51.77-71.41-51.87-71.59,0,0-.35-.65-.35-.65,0,0,0,0,0,0,.28.62-58.53,63.33-27.36,219.21,23,115,164.3,116.49,205,116s157.96-147.88,110.51-188.14Z"/>
    <rect x="346.2" y="416.55" width="100.51" height="220" rx="29.37" ry="29.37"/>
    <rect x="215.26" y="417.04" width="100.51" height="220" rx="29.37" ry="29.37"/>
    <rect x="184.2" y="256.55" width="288.57" height="307" rx="144.28" ry="144.28"/>
    <ellipse class="cls-6" cx="323.25" cy="252.72" rx="119.24" ry="91.13"/>
    <path class="cls-6" d="m465.35,314.2s8.45-34.86,37.69-33.36c24.1,1.24,56.28-26.24,59.93-42.01,6.63-28.67-1.24-59.31-27.18-69.82-27.52-11.14-124.7,1.42-157.55,5.56-35.3,4.45,38.92,27.97,38.92,36.45,0,9.68-15.49,12.24,15.45,11.12,21.42-.77,37.2-7.41,62.4-7.41,32.07,0,19.93,27.71-5.56,24.1-60.32-8.56-56.1,63.41-24.1,75.38Z"/>
    <path class="cls-6" d="m180.68,313.96s-8.45-34.86-37.69-33.36c-24.1,1.24-56.28-26.24-59.93-42.01-6.63-28.67,1.24-59.31,27.18-69.82,27.52-11.14,124.7,1.42,157.55,5.56,35.3,4.45-38.92,27.97-38.92,36.45,0,9.68,15.49,12.24-15.45,11.12-21.42-.77-37.2-7.41-62.4-7.41-32.07,0-19.93,27.71,5.56,24.1,60.32-8.56,56.1,63.41,24.1,75.38Z"/>
    <ellipse class="cls-4" cx="365.39" cy="222.23" rx="34.35" ry="19.17" transform="translate(-43.85 98.06) rotate(-14.43)"/>
    <ellipse class="cls-4" cx="283.58" cy="222.01" rx="19.17" ry="34.35" transform="translate(-2.09 441.32) rotate(-75.57)"/>
    <ellipse class="cls-3" cx="365.88" cy="222.14" rx="26.57" ry="14.83" transform="translate(-43.81 98.18) rotate(-14.43)"/>
    <ellipse class="cls-3" cx="283.41" cy="222.2" rx="14.83" ry="26.57" transform="translate(-2.41 441.3) rotate(-75.57)"/>
    <ellipse class="cls-4" cx="323.25" cy="289.48" rx="30.89" ry="28.42"/>
    <ellipse class="cls-7" cx="330.35" cy="262.92" rx="5.25" ry="12.36"/>
    <ellipse class="cls-7" cx="343.33" cy="269.09" rx="5.25" ry="12.36"/>
    <ellipse class="cls-7" cx="318" cy="261.68" rx="5.25" ry="12.36"/>
    <ellipse class="cls-7" cx="305.02" cy="269.09" rx="5.25" ry="12.36"/>
    <ellipse class="cls-7" cx="319.85" cy="311.11" rx="5.25" ry="12.36"/>
    <ellipse class="cls-7" cx="333.44" cy="309.87" rx="5.25" ry="12.36"/>
    <ellipse class="cls-7" cx="345.18" cy="307.4" rx="5.25" ry="12.36"/>
    <ellipse class="cls-7" cx="305.02" cy="308.64" rx="5.25" ry="12.36"/>
  </g>
</svg>