<?xml version="1.0" encoding="UTF-8"?>
<svg id="Calque_2" data-name="Calque 2" xmlns="http://www.w3.org/2000/svg" viewBox="0 0 259.37 214.84">
  <defs>
    <style>
      .cls-1 {
        fill: #ef9f00;
      }

      .cls-2 {
        fill: #ed3800;
      }

      .cls-3 {
        fill: #ea6a00;
      }
    </style>
  </defs>
  <g id="Calque_7" data-name="Calque 7">
    <path class="cls-1" d="m229.03,129.37c18,19.5-92,82.5-130,64.5S11.03,162.83,11.03,107.87c0-13.74,64.02-26.23,4-53S89.03,3.87,166.03,41.87c50.52,24.93,45,68,63,87.5Z"/>
    <path class="cls-2" d="m254.4,107.15c18,19.5-92,82.5-130,64.5s-88-31.05-88-86c0-13.74,64.02-26.23,4-53s74-51,151-13c50.52,24.93,45,68,63,87.5Z"/>
    <path class="cls-3" d="m257.4,147.15c18,19.5-92,82.5-130,64.5s-88-31.05-88-86c0-13.74,64.02-26.23,4-53s74-51,151-13c50.52,24.93,45,68,63,87.5Z"/>
  </g>
</svg>