<?xml version="1.0" encoding="UTF-8"?>
<svg id="Calque_2" data-name="Calque 2" xmlns="http://www.w3.org/2000/svg" viewBox="0 0 292 428">
  <defs>
    <style>
      .cls-1 {
        fill: #679ec6;
      }

      .cls-2 {
        fill: #ecc6b5;
      }

      .cls-3 {
        fill: #301a05;
      }

      .cls-4 {
        fill: #ce9300;
      }

      .cls-5 {
        fill: #112611;
      }

      .cls-6 {
        fill: #542a09;
      }

      .cls-7 {
        fill: #352008;
      }

      .cls-8 {
        fill: #4c3116;
      }
    </style>
  </defs>
  <g id="Frodon">
    <path class="cls-5" d="m265.26,370H26.74c-14.77,0-26.74-11.97-26.74-26.74v-132.53c0-14.77,32.23-45.74,47-45.74l190,1c14.77,0,55,29.97,55,44.74v132.53c0,14.77-11.97,26.74-26.74,26.74Z"/>
    <rect class="cls-8" x="14" y="164" width="254" height="264" rx="58.43" ry="58.43"/>
    <rect class="cls-3" x="93" y="180" width="96" height="248"/>
    <path class="cls-6" d="m213.04,176.39c-19.97,14.3-35.06,30.08-58.48,45.89-8.72,5.89-20.25,5.45-28.41-1.18-15.9-12.91-34.04-26.58-44.15-41.1-3.67-5.27-7.85.06-3.07,4.39,18.7,16.97,32.38,28.64,51.07,45.61,0,0,16,3,23-2,25.07-17.91,34-28,65.09-42.97,5.75-2.77.2-12.39-5.05-8.63Z"/>
    <path class="cls-5" d="m226.48,164H55.52c-17.41,0-28.52,11-41.52,32l-9,56c-17,24,37.59-38,55-38l81-30,73,31s47,30,63,40l-13-60c0-17.41-20.11-31-37.52-31Z"/>
    <path class="cls-7" d="m231.93,101.09c6.55,14.3-14.59,39.07-4.37,51.23,12.01,14.3,15.7,27.36,0,21.45-36.77-13.86-50.46-13.11-83-13.11-42.22,0-109.21,15.49-93.92-11.91,12.15-21.78-7.64-17.28-7.64-42.89,0-20.75,4.85-30.8,15.29-47.66,6.8-10.99.53-29.68,13.11-32.17,12.01-2.38,16.25-12.72,31.67-17.87,13.63-4.55,27.12-11.84,41.5-5.96,17.47,7.15,21.61,10.61,37.13,17.87,15.29,7.15,45.77,10.06,39.32,30.98-10.3,33.4.63,27.58,10.92,50.04Z"/>
    <circle class="cls-2" cx="141.43" cy="114.95" r="69.36"/>
    <ellipse id="Hat2" class="cls-1" cx="117.87" cy="108.28" rx="6.54" ry="3.93"/>
    <ellipse id="Hat3" class="cls-1" cx="163.68" cy="108.28" rx="6.54" ry="3.93"/>
    <path class="cls-7" d="m107.4,100.43h26.17v-3.93h-26.17c0,.22-3.93,2.4-3.93,2.62v2.38c0,.3,3.93-1.37,3.93-1.07Z"/>
    <path class="cls-7" d="m150.59,100.43h23.56c0-.25,3.93,2.12,3.93,1.87v-2.4c0-.26-3.93-3.13-3.93-3.39h-23.56v3.93Z"/>
    <path class="cls-7" d="m204,75c0,11.22-47.72,11.95-49-6-1-14-26,23-36,7-8.97-14.35-13.93,6-21,6-11,0-27,20-16-10,6.18-16.85,37.65-28,73-28s49,13.05,49,31Z"/>
    <ellipse class="cls-4" cx="141" cy="228" rx="4" ry="9"/>
    <ellipse class="cls-3" cx="141.14" cy="228" rx="2.86" ry="6.44"/>
    <g id="Lhand">
      <ellipse class="cls-2" cx="50" cy="317" rx="27" ry="39"/>
    </g>
    <g id="Rhand">
      <ellipse class="cls-2" cx="231" cy="317" rx="27" ry="39"/>
    </g>
  </g>
</svg>