<?xml version="1.0" encoding="UTF-8"?>
<svg id="Calque_2" data-name="Calque 2" xmlns="http://www.w3.org/2000/svg" viewBox="0 0 298 516.75">
  <defs>
    <style>
      .cls-1 {
        fill: #ecc6b5;
      }

      .cls-2 {
        fill: #8f8171;
      }

      .cls-3 {
        fill: #423e3b;
      }

      .cls-4 {
        fill: #706861;
      }

      .cls-5 {
        fill: #846c62;
      }

      .cls-6 {
        fill: #77726d;
      }
    </style>
  </defs>
  <g id="Calque_1-2" data-name="Calque 1">
    <rect id="Gandalfbody" class="cls-3" y="204.75" width="298" height="282" rx="55.65" ry="55.65"/>
    <ellipse class="cls-6" cx="146.02" cy="104.2" rx="85.72" ry="21.92"/>
    <ellipse class="cls-4" cx="148.64" cy="107.15" rx="80.49" ry="17.01"/>
    <circle class="cls-1" cx="148.64" cy="160.81" r="69.36"/>
    <path class="cls-2" d="m178.74,97.99s13.18,2.72,20.28,11.12,23.23,5.81,26.17,14.4-8.35,13.9-.84,37.71,21.05,3.92,20.28,29.34c-.75,24.85-16.68,24.17-7.89,38.66,12.77,21.06,48.83-3.45,27.8,14.15-21.04,17.61-54.67-1.43-53.34-16.22,1.33-14.8-18.03-86.3-18.03-86.3"/>
    <path class="cls-2" d="m120.94,95.1s-13.18,2.72-20.28,11.12-23.23,5.81-26.17,14.4,8.35,13.9.84,37.71c-7.51,23.82-21.05,3.92-20.28,29.34.75,24.85,16.68,24.17,7.89,38.66-12.77,21.06-48.83-3.45-27.8,14.15s54.67-1.43,53.34-16.22c-1.33-14.8,18.03-86.3,18.03-86.3"/>
    <path id="Hat1" class="cls-6" d="m68.15,95.37s14.79-.07,26.83-22.78-2.59-23.52,24.87-57.57c27.25-33.8,42.53,0,42.53,0,0,0,16.36-2.53,21.59,41.12s34.68,29.42,34.68,39.22"/>
    <path class="cls-2" d="m180.04,200.72c-5.32,2.73-66.29.01-66.09,0l-34.68-32.06s10.09,71.22,18.32,106.66c59.55,256.51,54.31,172.09,106.66,1.31,5.74-18.73,13.74-107.97,13.74-107.97l-37.95,32.06Z"/>
    <path class="cls-2" d="m175.46,193.52h-55.62c0-.6-4.58,9.11-4.58,8.51,0-1.66-7.2-3.58-7.2-5.23,0-.43,10.47-10.04,10.47-10.47h57.58s11.12,13.72,11.12,13.74c0,.19-6.54,4.33-6.54,4.58,0,.02-5.23-11.14-5.23-11.12Z"/>
    <ellipse id="Hat2" class="cls-2" cx="125.08" cy="143.14" rx="6.54" ry="3.93"/>
    <ellipse id="Hat3" class="cls-2" cx="170.88" cy="143.14" rx="6.54" ry="3.93"/>
    <path class="cls-2" d="m114.61,135.29h26.17v-3.93h-26.17c0,.22-3.93,2.4-3.93,2.62v2.38c0,.3,3.93-1.37,3.93-1.07Z"/>
    <path class="cls-2" d="m157.8,135.29h23.56c0-.25,3.93,2.12,3.93,1.87v-2.4c0-.26-3.93-3.13-3.93-3.39h-23.56v3.93Z"/>
    <g id="Rhand">
      <ellipse class="cls-1" cx="256" cy="384.75" rx="27" ry="39"/>
    </g>
    <g id="Lhand">
      <ellipse class="cls-1" cx="41" cy="384.75" rx="27" ry="39"/>
    </g>
    <path id="Baton" class="cls-5" d="m270.98,515.14l-4.02,1.61c-9.55,0-5.63-12.97-5.63-22.52l-2.41-66.77,2.41-222.03-2.41-98.95c0-4.26-17.7-25.74-8.04-31.37s17.23-19.31,22.52-19.31l19.31-8.04c4.6,0-6.77,24.18-3.22,26.55,12.07,8.04-9.65,14.08-6.44,31.37l-7.24,98.14-4.83,221.23.8,68.38c0,9.55,1.61,20.92-.8,21.72Z"/>
  </g>
</svg>