<?xml version="1.0" encoding="UTF-8"?>
<svg id="Calque_2" data-name="Calque 2" xmlns="http://www.w3.org/2000/svg" viewBox="0 0 335.1 410.84">
  <defs>
    <style>
      .cls-1 {
        fill: #ecc6b5;
      }

      .cls-2 {
        fill: #efbc30;
      }

      .cls-3 {
        fill: #2f6f96;
      }

      .cls-4 {
        fill: #281b13;
      }

      .cls-5 {
        fill: #493120;
      }

      .cls-6 {
        fill: #492d1f;
      }

      .cls-7 {
        fill: #774a31;
      }
    </style>
  </defs>
  <g id="Legolas">
    <path class="cls-4" d="m307.63,410.84H62.57c-15.17,0-27.47-16.41-27.47-36.65v-181.66c0-20.24,33.12-62.69,48.29-62.69l195.21,1.37c15.17,0,56.51,41.08,56.51,61.32v181.66c0,20.24-12.3,36.65-27.47,36.65Z"/>
    <path class="cls-6" d="m135.58,117.1l-62.89-48.53c.16-1.19-.09-2.46-.87-3.61-2.71-3.97-3.84-8.72-5.92-13.02-1.95-4.02-4.28-7.83-6.91-11.44-3.79-5.22-8.6-1.53-4.82,3.68,3.33,4.58,6.07,15.29,8.32,20.32-6.57-1.52-16.28-1.74-22.98-1.32-6.44.41-5.8,5.5.6,5.09,4.36-.28,8.54,1.06,12.71,2.13,4.74,1.22,9.49,2.06,14.36,2.53,1.34.13,2.52-.24,3.44-.9l62.51,48.24,2.44-3.17Z"/>
    <path class="cls-6" d="m123.59,137.63l-62.89-48.53c.16-1.19-.09-2.46-.87-3.61-2.71-3.97-3.84-8.72-5.92-13.02-1.95-4.02-4.28-7.83-6.91-11.44-3.79-5.22-8.6-1.53-4.82,3.68,3.33,4.58,6.07,15.29,8.32,20.32-6.57-1.52-16.28-1.74-22.98-1.32-6.44.41-5.8,5.5.6,5.09,4.36-.28,8.54,1.06,12.71,2.13,4.74,1.22,9.49,2.06,14.36,2.53,1.34.13,2.52-.24,3.44-.9l62.51,48.24,2.44-3.17Z"/>
    <path class="cls-6" d="m100.59,152.63l-62.89-48.53c.16-1.19-.09-2.46-.87-3.61-2.71-3.97-3.84-8.72-5.92-13.02-1.95-4.02-4.28-7.83-6.91-11.44-3.79-5.22-8.6-1.53-4.82,3.68,3.33,4.58,6.07,15.29,8.32,20.32-6.57-1.52-16.28-1.74-22.98-1.32-6.44.41-5.8,5.5.6,5.09,4.36-.28,8.54,1.06,12.71,2.13,4.74,1.22,9.49,2.06,14.36,2.53,1.34.13,2.52-.24,3.44-.9l62.51,48.24,2.44-3.17Z"/>
    <path class="cls-6" d="m135.59,132.63l-62.89-48.53c.16-1.19-.09-2.46-.87-3.61-2.71-3.97-3.84-8.72-5.92-13.02-1.95-4.02-4.28-7.83-6.91-11.44-3.79-5.22-8.6-1.53-4.82,3.68,3.33,4.58,6.07,15.29,8.32,20.32-6.57-1.52-16.28-1.74-22.98-1.32-6.44.41-5.8,5.5.6,5.09,4.36-.28,8.54,1.06,12.71,2.13,4.74,1.22,9.49,2.06,14.36,2.53,1.34.13,2.52-.24,3.44-.9l62.51,48.24,2.44-3.17Z"/>
    <path class="cls-7" d="m210.91,280.73L48.31,146.9c-5.15-4.24-4.1-12.4,1.95-15.2l4.01-1.85c2.19-1.02,4.13-2.51,5.67-4.38l28.1-34.14c1.49-1.8,2.56-3.91,3.16-6.17l2.72-10.25c1.11-4.19,6.19-5.83,9.54-3.07l166.56,137.09-59.1,71.81Z"/>
    <path id="Gandalfbody" class="cls-5" d="m266.79,410.84H102.53c-27.04,0-48.96-24.92-48.96-55.65v-170.7c0-30.74,12.32-45.65,48.96-55.65l82.13-26,82.13,26c31.36,13,48.96,24.92,48.96,55.65v170.7c0,30.74-21.92,55.65-48.96,55.65Z"/>
    <path class="cls-4" d="m260.9,119.84H110.5c-15.32,0-43.73,10-55.17,31l-9.68,56c-14.96,24,53.47-37,68.78-37l71.26-30,64.22,31s71.1,43,85.18,53l-1.76-39c0-17.41-57.12-65-72.44-65Z"/>
    <path class="cls-2" d="m130.64,190.9s-17.15,10.99-13.35,2.54c3.34-7.44,12.58-14.33,13.46-20.95l-2.8-119.41c1.99-14.97,14.28-25.26,27.44-23l8.86,1.52c13.17,2.26,22.23,16.23,20.24,31.2l-15.42,115.96c-.51,3.84-2.11,7.38-4.55,10.09-14.1,15.67-39.91,17.34-43.19,14.39-5.35-4.81,11.41-8.64,9.93-12.09-.11-.25-.39-.34-.61-.24Z"/>
    <path class="cls-2" d="m242.08,187.3s17.15,10.99,13.35,2.54c-3.34-7.44-12.58-14.33-13.46-20.95l2.8-119.41c-1.99-14.97-14.28-25.26-27.44-23l-8.86,1.52c-13.17,2.26-22.23,16.23-20.24,31.2l15.42,115.96c.51,3.84,2.11,7.38,4.55,10.09,14.1,15.67,39.91,17.34,43.19,14.39,5.35-4.81-11.41-8.64-9.93-12.09.11-.25.39-.34.61-.24Z"/>
    <path class="cls-1" d="m248.71,69.49c0,38.3-34.14,72.35-61.41,72.35-21.11,0-60.63-34.05-60.63-72.35S153.99.15,187.69.15s61.02,31.05,61.02,69.35Z"/>
    <ellipse id="Hat2" class="cls-3" cx="168.72" cy="69.84" rx="5.76" ry="3.93"/>
    <ellipse id="Hat3" class="cls-3" cx="207.26" cy="69.84" rx="5.76" ry="3.93"/>
    <path class="cls-2" d="m159.51,61.99h23.03v-3.93h-23.03c0,.22-3.45,2.4-3.45,2.62v2.38c0,.3,3.45-1.37,3.45-1.07Z"/>
    <path class="cls-2" d="m195.75,61.99h20.72c0-.25,3.45,2.12,3.45,1.87v-2.4c0-.26-3.45-3.13-3.45-3.39h-20.72v3.93Z"/>
    <g id="Rhand">
      <ellipse class="cls-1" cx="282.14" cy="307.45" rx="23.75" ry="39"/>
    </g>
    <g id="Lhand">
      <ellipse class="cls-1" cx="93" cy="307.45" rx="23.75" ry="39"/>
    </g>
    <path class="cls-2" d="m248,57.84c-1.36,8.01-17.6-26-24.63-28-11.2-3.18-20.22,19.77-35.19,19-19.35-1-26.1-26.8-36.95-19-14.34,10.31-21.93,35.26-23.75,28-3.52-14,16.25-48.2,52.79-57,29.19-7.03,72.02,31.78,67.74,57Z"/>
  </g>
</svg>