<?xml version="1.0" encoding="UTF-8"?>
<svg id="Calque_2" data-name="Calque 2" xmlns="http://www.w3.org/2000/svg" viewBox="0 0 324 734">
  <defs>
    <style>
      .cls-1 {
        fill: #847d7b;
      }

      .cls-2 {
        fill: #e06907;
      }

      .cls-3 {
        fill: #dbc714;
      }

      .cls-4 {
        fill: #161413;
      }

      .cls-5 {
        fill: #16140f;
      }

      .cls-6 {
        stroke: #847d7b;
        stroke-miterlimit: 10;
        stroke-width: 4px;
      }
    </style>
  </defs>
  <g id="OeilSauron">
    <path class="cls-5" d="m305,734l-288-4L56,0l30.53,104.86c9.52,32.7,38.9,56.04,72.95,56.89,1.03.03,2.06.04,3.09.03,34.78-.19,65.18-23.55,74.91-56.94L268,0l37,734Z"/>
    <polygon class="cls-5" points="295 303 30 303 30 234 59.64 263 160.76 271 262.75 264 295 234 295 303"/>
    <polygon class="cls-5" points="292 194 34 194 21 124 63.64 166 164.76 174 266.75 167 303 117 292 194"/>
    <polygon class="cls-5" points="324 547 0 547 0 478 36.24 507 159.87 515 284.57 508 324 478 324 547"/>
    <path class="cls-3" d="m251.38,57.51s-38.14,40.51-85.19,40.51-85.19-40.51-85.19-40.51c0-10.42,38.14-40.51,85.19-40.51s85.19,40.51,85.19,40.51Z"/>
    <path class="cls-2" d="m242,58s-34.25,35-76.5,35-76.5-35-76.5-35c0-9,34.25-35,76.5-35s76.5,35,76.5,35Z"/>
    <path class="cls-4" d="m175,58c0,19.33-9,35-9,35,0,0-9-15.67-9-35s9-35,9-35c0,0,9,15.67,9,35Z"/>
    <rect class="cls-1" x="231" y="684" width="70" height="48" rx="10.88" ry="10.88"/>
    <rect class="cls-1" x="228" y="635" width="70" height="48" rx="10.88" ry="10.88"/>
    <rect class="cls-1" x="26" y="684" width="70" height="48" rx="10.88" ry="10.88"/>
    <rect class="cls-1" x="27" y="635" width="70" height="48" rx="10.88" ry="10.88"/>
    <rect class="cls-1" x="130" y="586" width="70" height="48" rx="10.88" ry="10.88"/>
    <rect class="cls-1" x="58" y="587" width="70" height="48" rx="10.88" ry="10.88"/>
    <rect class="cls-1" x="200" y="586" width="70" height="48" rx="10.88" ry="10.88"/>
    <line class="cls-6" x1="69" y1="726" x2="250" y2="726"/>
    <line class="cls-6" x1="72" y1="684" x2="253" y2="684"/>
    <line class="cls-6" x1="62" y1="708" x2="243" y2="708"/>
    <line class="cls-6" x1="79" y1="661" x2="260" y2="661"/>
    <line class="cls-6" x1="106" y1="725" x2="106" y2="650"/>
    <line class="cls-6" x1="189.04" y1="723.32" x2="189" y2="645"/>
    <line class="cls-6" x1="125" y1="726" x2="125" y2="640"/>
    <line class="cls-6" x1="156" y1="726" x2="156" y2="635"/>
    <line class="cls-6" x1="212" y1="725" x2="209" y2="634"/>
    <path class="cls-1" d="m219,429s39,108,38.91,108c-.81,0,5.09.08,8.55,3.54,2.19,2.19,3.54,5.21,3.54,8.55v23.82c0,6.68-5.41,12.09-12.09,12.09H73.09c-6.68,0-12.09-5.41-12.09-12.09v-23.82c0-6.68,12.09-12.09,12.09-12.09-.09,0,40.91-109,40.91-109"/>
  </g>
</svg>