<?xml version="1.0" encoding="UTF-8"?>
<svg id="Calque_2" data-name="Calque 2" xmlns="http://www.w3.org/2000/svg" viewBox="0 0 396.84 601.66">
  <defs>
    <style>
      .cls-1 {
        fill: #301a05;
      }

      .cls-2 {
        fill: #c14610;
      }

      .cls-3 {
        fill: #e2ae1a;
      }

      .cls-4 {
        fill: #2b632b;
      }

      .cls-5 {
        fill: #56cbd1;
      }
    </style>
  </defs>
  <g id="Sapin">
    <rect class="cls-1" x="153.89" y="479.39" width="83.81" height="122.27"/>
    <polygon class="cls-4" points="70.26 157.8 187.57 0 321.04 157.69 70.26 157.8"/>
    <polygon class="cls-4" points="34.51 322.24 188.04 116.16 362.7 322.1 34.51 322.24"/>
    <polygon class="cls-4" points="0 490.78 183.74 243.64 396.84 495.42 0 490.78"/>
    <ellipse class="cls-5" cx="153.81" cy="103.97" rx="19.58" ry="27.66"/>
    <ellipse class="cls-5" cx="267.9" cy="402.68" rx="19.58" ry="27.66"/>
    <ellipse class="cls-2" cx="121.41" cy="262.26" rx="19.58" ry="27.66"/>
    <ellipse class="cls-3" cx="82.25" cy="452.04" rx="19.58" ry="27.66"/>
    <ellipse class="cls-2" cx="219.26" cy="332.97" rx="19.58" ry="27.66"/>
    <ellipse class="cls-3" cx="237.52" cy="119.28" rx="19.58" ry="27.66"/>
    <ellipse class="cls-5" cx="237.52" cy="246.94" rx="19.58" ry="27.66"/>
    <ellipse class="cls-2" cx="195.67" cy="457.99" rx="19.58" ry="27.66"/>
    <ellipse class="cls-3" cx="331.36" cy="457.99" rx="19.58" ry="27.66"/>
  </g>
</svg>