<?xml version="1.0" encoding="UTF-8"?>
<svg id="svg8" xmlns="http://www.w3.org/2000/svg" viewBox="0 0 154.28 31.09">
  <defs>
    <style>
      .cls-1 {
        fill: #ff6187;
      }
    </style>
  </defs>
  <path id="path851" class="cls-1" d="m132.85,30.56c-4.3-1.09-7.79-4.53-9.38-9.24-.58-1.72-.69-2.42-.69-4.55-.01-5.2,1.94-9.25,5.98-12.39,1.8-1.4,3.45-2.23,6.6-3.33,5.73-2,9.81-1.19,13.97,2.75,2.3,2.18,3.53,4.11,4.41,6.91.57,1.81.61,2.24.5,4.92-.14,3.36-.54,4.78-2.15,7.5-2.08,3.52-5.36,5.98-9.43,7.08-2.54.69-7.75.87-9.81.35Z"/>
  <path id="path847" class="cls-1" d="m11.14,30.83C5.32,29.49,1.8,26.24.45,20.95c-.56-2.18-.59-3.93-.13-6.14C1.6,8.8,5.49,4.23,10.88,2.44c1.79-.6,2.25-.65,6.02-.66,4.56-.01,4.86.07,6.76,1.8.55.5,1.47,1.15,2.04,1.44,1.56.79,4.33,3.68,5.21,5.44,2.74,5.43,1.62,11.24-3.07,15.92-3.34,3.34-6.37,4.53-11.9,4.68-2.3.06-3.82-.01-4.8-.24Z"/>
</svg>